<!-- <svg xmlns="http://www.w3.org/2000/svg" viewBox="0 0 261.76 226.69"><path d="M161.096.001l-30.225 52.351L100.647.001H-.005l130.877 226.688L261.749.001z" fill="#41b883"/><path d="M161.096.001l-30.225 52.351L100.647.001H52.346l78.526 136.01L209.398.001z" fill="#34495e"/></svg> -->

<svg id="logo-15" width="100%" height="100%" viewBox="0 0 49 48" fill="none" xmlns="http://www.w3.org/2000/svg"> <path d="M24.5 12.75C24.5 18.9632 19.4632 24 13.25 24H2V12.75C2 6.53679 7.03679 1.5 13.25 1.5C19.4632 1.5 24.5 6.53679 24.5 12.75Z" class="ccustom" fill="#5cc157"></path> <path d="M24.5 35.25C24.5 29.0368 29.5368 24 35.75 24H47V35.25C47 41.4632 41.9632 46.5 35.75 46.5C29.5368 46.5 24.5 41.4632 24.5 35.25Z" class="ccustom" fill="#5cc157"></path> <path d="M2 35.25C2 41.4632 7.03679 46.5 13.25 46.5H24.5V35.25C24.5 29.0368 19.4632 24 13.25 24C7.03679 24 2 29.0368 2 35.25Z" class="ccustom" fill="#5cc157"></path> <path d="M47 12.75C47 6.53679 41.9632 1.5 35.75 1.5H24.5V12.75C24.5 18.9632 29.5368 24 35.75 24C41.9632 24 47 18.9632 47 12.75Z" class="ccustom" fill="#5cc157"></path> </svg>
